# xmcd
#
# Track frame offsets: 
#        150
#        7039
#        23522
#        36027
#        56631
#        69318
#        86555
#        97188
#        115235
#        134825
#        149735
#        161725
#        175986
#        189635
#        201906
#        208771
#
# Disc length: 2878 seconds
#
# Revision: 0
# Processed by: cddbd v1.4PL0 Copyright (c) Steve Scherf et al.
# Submitted via: ExactAudioCopy v0.95a3
#
DISCID=f20b3c10
DTITLE=CannonBall Bluegrass Express - Live From Wrench Wranch
DYEAR=1900
DGENRE=Bluegrass
TTITLE0=Sally Goodin
TTITLE1=Soon the Snowflakes Will be Falling
TTITLE2=Gone Gone Gone
TTITLE3=The Shadows of My Mind
TTITLE4=Fourty Years of Pain
TTITLE5=We'll Meet Again Sweetheart
TTITLE6=Little Home in West Virginia
TTITLE7=Honky Tonk Angles
TTITLE8=Satans Jewel Crown
TTITLE9=Lorena
TTITLE10=Dreaming
TTITLE11=Alown With You
TTITLE12=Just With You
TTITLE13=Eight More Miles to Louisville
TTITLE14=Lonesome Road Blues
TTITLE15=Big John McNeil
EXTD=
EXTT0=
EXTT1=
EXTT2=
EXTT3=
EXTT4=
EXTT5=
EXTT6=
EXTT7=
EXTT8=
EXTT9=
EXTT10=
EXTT11=
EXTT12=
EXTT13=
EXTT14=
EXTT15=
PLAYORDER=
